# xmcd
#
# Track frame offsets:
# 150
# 18794
# 36795
# 51090
# 67428
# 79566
# 94319
# 113378
# 124930
# 137556
# 147668
# 161766
# 175807
# 191583
# 208062
#
# Disc length: 3036 seconds
#
#
# Revision: 0
# Processed by: cddbd v1.5.2PL0 Copyright (c) Steve Scherf et al.
# Submitted via: FreeRIP 2.95 
#
DISCID=d60bda0f
DTITLE=Asas Livres - Asas Livres Especial
DYEAR=2006
DGENRE=Pop
TTITLE0=Por Te Amar Demais
TTITLE1=Me Deixe So
TTITLE2=Choram As Rosas
TTITLE3=Pedra No Caminho
TTITLE4=Que Saudade De Voce
TTITLE5=Chora Peito
TTITLE6=Paixao Que Nao Tem Cura
TTITLE7=E Amor Demais
TTITLE8=Se Nao Tivesse Ido
TTITLE9=Porque Brigamos
TTITLE10=Crise De Amor
TTITLE11=Eu So Quero Ser Feliz
TTITLE12=Nao Tem Mais Jeito
TTITLE13=Volta Pra Mim
TTITLE14=Nosso Juramento
EXTD=
EXTT0=
EXTT1=
EXTT2=
EXTT3=
EXTT4=
EXTT5=
EXTT6=
EXTT7=
EXTT8=
EXTT9=
EXTT10=
EXTT11=
EXTT12=
EXTT13=
EXTT14=
PLAYORDER=
